<svg id="svg" version="1.1" xmlns="http://www.w3.org/2000/svg" xmlns:xlink="http://www.w3.org/1999/xlink" width="400" height="105.74456218627998" viewBox="0, 0, 400,105.74456218627998"><g id="svgg"><path id="path0" d="M80.250 36.021 C 78.967 36.097,77.767 36.228,77.583 36.312 C 77.400 36.396,76.612 36.547,75.833 36.647 C 74.345 36.838,74.074 36.888,73.667 37.047 C 73.417 37.145,71.975 37.485,71.497 37.560 C 71.358 37.581,71.170 37.640,71.080 37.691 C 70.990 37.741,70.542 37.880,70.083 38.000 C 69.625 38.120,69.175 38.273,69.083 38.340 C 68.992 38.407,68.654 38.518,68.333 38.586 C 68.013 38.655,67.413 38.860,67.000 39.042 C 66.588 39.224,65.987 39.485,65.667 39.622 C 65.346 39.758,64.953 39.937,64.794 40.018 C 64.635 40.100,64.391 40.167,64.252 40.167 C 64.114 40.167,64.000 40.230,64.000 40.307 C 64.000 40.384,63.700 40.537,63.333 40.647 C 62.967 40.757,62.667 40.904,62.667 40.973 C 62.667 41.043,62.411 41.192,62.099 41.305 C 61.787 41.418,61.262 41.693,60.932 41.917 C 60.603 42.140,60.332 42.269,60.331 42.203 C 60.329 42.137,60.273 42.160,60.206 42.253 C 60.138 42.347,59.896 42.521,59.667 42.640 C 58.556 43.216,58.185 43.462,58.282 43.560 C 58.341 43.619,58.304 43.667,58.200 43.667 C 58.009 43.667,56.777 44.408,56.328 44.792 C 56.193 44.908,55.633 45.342,55.083 45.757 C 53.855 46.685,52.881 47.505,51.774 48.542 C 51.310 48.977,50.866 49.333,50.788 49.333 C 50.711 49.333,50.693 49.408,50.750 49.500 C 50.807 49.592,50.788 49.667,50.708 49.667 C 50.540 49.667,50.311 49.884,48.833 51.445 C 47.478 52.877,46.349 54.171,46.388 54.249 C 46.404 54.282,46.163 54.595,45.853 54.946 C 45.542 55.296,45.212 55.752,45.117 55.958 C 45.023 56.164,44.882 56.333,44.802 56.333 C 44.723 56.333,44.587 56.521,44.500 56.750 C 44.413 56.979,44.260 57.167,44.161 57.167 C 44.062 57.167,44.021 57.233,44.072 57.314 C 44.122 57.396,44.051 57.555,43.915 57.668 C 43.778 57.781,43.667 57.971,43.667 58.090 C 43.667 58.208,43.610 58.331,43.542 58.361 C 43.376 58.435,42.333 60.146,42.333 60.344 C 42.333 60.430,42.273 60.500,42.200 60.500 C 42.127 60.500,41.972 60.762,41.856 61.083 C 41.740 61.404,41.575 61.667,41.489 61.667 C 41.403 61.667,41.333 61.748,41.333 61.848 C 41.333 61.947,41.114 62.491,40.845 63.056 C 40.577 63.621,40.188 64.458,39.982 64.917 C 39.775 65.375,39.556 65.787,39.494 65.833 C 39.432 65.879,39.333 66.179,39.273 66.500 C 39.214 66.821,39.054 67.296,38.918 67.556 C 38.783 67.815,38.591 68.340,38.493 68.722 C 38.394 69.104,38.212 69.642,38.087 69.917 C 37.963 70.192,37.807 70.717,37.742 71.083 C 37.677 71.450,37.566 71.825,37.495 71.917 C 37.425 72.008,37.274 72.683,37.160 73.417 C 37.046 74.150,36.891 74.830,36.815 74.927 C 36.740 75.024,36.593 75.999,36.489 77.094 C 36.384 78.188,36.216 79.258,36.114 79.472 C 35.861 80.005,35.860 88.992,36.113 89.528 C 36.214 89.742,36.387 90.817,36.498 91.917 C 36.608 93.016,36.755 93.954,36.825 94.000 C 36.894 94.046,37.051 94.702,37.172 95.458 C 37.294 96.215,37.441 96.833,37.499 96.833 C 37.558 96.833,37.704 97.340,37.824 97.958 C 37.945 98.577,38.097 99.158,38.163 99.250 C 38.323 99.475,38.752 101.048,38.700 101.221 C 38.677 101.296,38.734 101.312,38.826 101.255 C 38.923 101.195,39.040 101.441,39.103 101.837 C 39.164 102.214,39.315 102.624,39.440 102.749 C 39.565 102.874,39.667 103.070,39.667 103.185 C 39.667 103.301,39.813 103.700,39.991 104.072 C 40.170 104.445,40.394 104.958,40.489 105.212 L 40.661 105.673 68.205 105.623 C 96.057 105.571,96.872 105.554,97.333 105.014 C 97.379 104.961,97.529 104.895,97.667 104.868 C 98.089 104.785,100.000 103.773,100.000 103.633 C 100.000 103.560,100.083 103.500,100.184 103.500 C 100.361 103.500,100.948 103.068,101.835 102.283 C 102.066 102.079,102.516 101.578,102.835 101.169 C 103.155 100.760,103.506 100.329,103.614 100.211 C 103.723 100.094,103.859 99.848,103.917 99.666 C 103.975 99.483,104.081 99.333,104.152 99.333 C 104.222 99.333,104.370 99.033,104.480 98.667 C 104.590 98.300,104.747 98.000,104.828 98.000 C 104.909 98.000,105.069 97.569,105.182 97.042 C 105.296 96.515,105.470 95.978,105.569 95.849 C 105.963 95.340,105.897 40.709,105.503 40.584 C 105.318 40.526,105.167 40.417,105.167 40.343 C 105.167 40.269,104.940 40.163,104.664 40.108 C 104.388 40.053,103.762 39.818,103.273 39.587 C 102.784 39.356,102.265 39.167,102.119 39.167 C 101.973 39.167,101.813 39.102,101.764 39.023 C 101.715 38.944,101.317 38.781,100.879 38.660 C 100.442 38.540,100.046 38.389,100.000 38.325 C 99.954 38.262,99.392 38.081,98.750 37.924 C 98.108 37.766,96.983 37.487,96.250 37.303 C 94.349 36.827,92.678 36.514,91.992 36.507 C 91.666 36.503,91.329 36.431,91.242 36.346 C 90.837 35.952,84.543 35.765,80.250 36.021 M82.822 47.033 C 83.967 47.416,85.349 48.147,85.917 48.670 C 87.012 49.678,87.833 50.602,87.833 50.827 C 87.833 50.900,87.945 51.052,88.081 51.165 C 88.218 51.278,88.289 51.438,88.238 51.519 C 88.188 51.600,88.224 51.667,88.317 51.667 C 88.411 51.667,88.572 51.985,88.677 52.375 C 88.781 52.765,88.952 53.189,89.058 53.317 C 89.317 53.633,89.316 57.643,89.057 58.182 C 88.951 58.403,88.739 58.921,88.585 59.333 C 88.431 59.746,88.188 60.215,88.044 60.375 C 87.900 60.535,87.837 60.667,87.905 60.667 C 88.042 60.667,87.024 62.019,86.754 62.195 C 86.660 62.257,86.325 62.539,86.009 62.823 C 85.317 63.444,83.876 64.277,83.223 64.433 C 82.963 64.495,82.646 64.629,82.518 64.730 C 82.164 65.010,78.193 64.979,78.017 64.694 C 77.941 64.572,77.813 64.476,77.731 64.481 C 75.637 64.615,71.822 60.824,71.401 58.191 C 71.340 57.811,71.235 57.500,71.167 57.500 C 70.987 57.500,70.955 54.507,71.133 54.278 C 71.216 54.171,71.380 53.615,71.498 53.042 C 71.616 52.469,71.758 51.999,71.814 51.998 C 71.871 51.997,72.058 51.702,72.230 51.343 C 72.880 49.984,75.074 47.833,75.809 47.833 C 75.892 47.833,76.042 47.733,76.144 47.610 C 76.306 47.415,77.315 47.024,77.974 46.900 C 78.097 46.877,78.240 46.815,78.293 46.763 C 78.566 46.490,81.770 46.681,82.822 47.033 M59.083 68.725 C 59.358 68.875,59.672 68.998,59.780 68.999 C 60.860 69.005,65.500 72.471,65.500 73.272 C 65.500 73.388,65.594 73.543,65.708 73.617 C 65.955 73.774,66.817 75.485,66.920 76.020 C 66.960 76.224,67.061 76.435,67.144 76.488 C 67.750 76.868,67.767 83.667,67.163 83.667 C 67.092 83.667,66.943 84.042,66.833 84.500 C 66.723 84.958,66.575 85.333,66.504 85.333 C 66.432 85.333,66.274 85.577,66.151 85.875 C 66.029 86.173,65.795 86.562,65.631 86.740 C 65.467 86.917,65.333 87.132,65.333 87.216 C 65.333 87.423,63.236 89.500,63.027 89.500 C 62.936 89.500,62.836 89.556,62.806 89.625 C 62.682 89.903,60.623 91.044,60.167 91.087 C 60.121 91.092,59.933 91.177,59.750 91.276 C 59.567 91.376,59.042 91.511,58.583 91.578 C 58.125 91.644,57.661 91.771,57.552 91.861 C 57.345 92.031,54.563 91.973,53.833 91.783 C 53.604 91.724,53.043 91.586,52.586 91.478 C 51.325 91.180,49.200 90.033,48.302 89.168 C 47.861 88.742,47.500 88.421,47.500 88.453 C 47.500 88.485,47.256 88.233,46.958 87.892 C 46.660 87.551,46.435 87.213,46.457 87.141 C 46.479 87.069,46.347 86.930,46.165 86.832 C 45.983 86.735,45.833 86.550,45.833 86.423 C 45.833 86.295,45.735 86.091,45.614 85.970 C 45.203 85.556,44.520 83.897,44.405 83.031 C 44.342 82.556,44.221 82.167,44.136 82.167 C 43.380 82.167,44.596 75.201,45.504 74.333 C 45.733 74.114,46.160 73.333,46.050 73.333 C 45.982 73.333,46.093 73.217,46.296 73.074 C 46.500 72.931,46.667 72.706,46.667 72.574 C 46.667 72.442,46.774 72.333,46.905 72.333 C 47.037 72.333,47.192 72.183,47.250 72.000 C 47.308 71.817,47.458 71.667,47.583 71.667 C 47.708 71.667,47.858 71.517,47.917 71.333 C 47.975 71.150,48.132 71.000,48.266 71.000 C 48.401 71.000,48.551 70.894,48.601 70.765 C 48.650 70.636,48.910 70.440,49.179 70.328 C 49.447 70.217,49.667 70.066,49.667 69.993 C 49.667 69.919,49.948 69.767,50.292 69.655 C 50.635 69.543,50.954 69.401,51.000 69.339 C 51.096 69.208,52.481 68.708,53.333 68.496 C 54.344 68.246,58.508 68.412,59.083 68.725 M88.667 79.310 C 88.667 79.389,89.043 79.498,89.504 79.553 C 89.964 79.607,90.433 79.710,90.546 79.782 C 90.658 79.853,90.787 79.916,90.833 79.920 C 91.101 79.949,92.271 80.600,92.383 80.783 C 92.457 80.902,92.583 81.000,92.665 81.000 C 92.859 81.000,94.333 82.454,94.333 82.645 C 94.333 82.726,94.449 82.889,94.591 83.007 C 95.309 83.602,96.000 85.872,96.000 87.634 C 96.000 88.760,95.683 90.667,95.496 90.667 C 95.421 90.667,95.268 90.948,95.156 91.292 C 95.044 91.635,94.851 91.977,94.726 92.050 C 94.602 92.123,94.500 92.274,94.500 92.384 C 94.500 92.553,93.230 93.826,92.469 94.421 C 91.653 95.058,89.903 95.780,89.388 95.691 C 89.280 95.673,89.144 95.735,89.086 95.829 C 88.954 96.043,86.333 96.057,86.333 95.844 C 86.333 95.758,86.202 95.696,86.042 95.707 C 83.956 95.847,80.929 93.150,79.824 90.167 C 79.390 88.995,79.245 85.933,79.612 85.696 C 79.708 85.634,79.766 85.452,79.741 85.292 C 79.716 85.131,79.748 85.000,79.812 85.000 C 79.875 85.000,80.027 84.662,80.149 84.250 C 80.270 83.837,80.437 83.500,80.518 83.500 C 80.600 83.500,80.667 83.413,80.667 83.306 C 80.667 83.077,80.829 82.880,81.976 81.708 C 82.447 81.227,82.941 80.833,83.074 80.833 C 83.208 80.833,83.377 80.734,83.450 80.613 C 83.635 80.307,85.728 79.500,86.335 79.500 C 86.609 79.500,86.833 79.425,86.833 79.333 C 86.833 79.242,87.246 79.167,87.750 79.167 C 88.254 79.167,88.667 79.231,88.667 79.310 " stroke="none" fill="#fca424" fill-rule="evenodd"></path><path id="path1" d="M77.083 0.105 C 75.352 0.344,74.333 0.546,74.333 0.650 C 74.333 0.716,73.958 0.866,73.500 0.984 C 73.042 1.101,72.667 1.254,72.667 1.322 C 72.667 1.391,72.367 1.537,72.000 1.647 C 71.633 1.757,71.333 1.919,71.333 2.007 C 71.333 2.095,71.247 2.167,71.141 2.167 C 71.035 2.167,70.702 2.354,70.402 2.583 C 70.101 2.812,69.794 3.000,69.718 3.000 C 69.643 3.000,69.340 3.262,69.046 3.583 C 68.751 3.904,68.447 4.167,68.370 4.167 C 68.205 4.167,67.333 5.049,67.333 5.216 C 67.333 5.279,67.123 5.537,66.867 5.790 C 66.610 6.043,66.162 6.625,65.871 7.083 C 65.580 7.542,65.275 7.997,65.193 8.095 C 65.111 8.193,64.940 8.568,64.814 8.928 C 64.688 9.288,64.536 9.621,64.476 9.667 C 64.350 9.764,63.927 11.191,63.971 11.375 C 63.987 11.444,63.930 11.500,63.845 11.500 C 63.760 11.500,63.644 11.931,63.587 12.458 C 63.530 12.985,63.421 13.534,63.343 13.677 C 63.266 13.820,63.238 14.542,63.280 15.281 L 63.357 16.626 62.270 16.842 C 61.672 16.961,61.216 17.112,61.256 17.177 C 61.297 17.242,61.006 17.345,60.610 17.404 C 60.213 17.463,59.633 17.649,59.320 17.817 C 59.006 17.985,58.506 18.176,58.208 18.241 C 57.910 18.306,57.667 18.419,57.667 18.492 C 57.667 18.565,57.443 18.670,57.169 18.724 C 56.896 18.779,56.065 19.121,55.324 19.485 C 54.583 19.848,53.756 20.194,53.488 20.253 C 53.220 20.312,53.000 20.417,53.000 20.487 C 53.000 20.556,52.700 20.712,52.333 20.833 C 51.967 20.954,51.667 21.133,51.667 21.230 C 51.667 21.327,51.235 20.988,50.708 20.476 C 50.181 19.965,49.619 19.501,49.458 19.445 C 49.298 19.389,49.167 19.280,49.167 19.203 C 49.167 19.126,48.904 18.959,48.583 18.833 C 48.262 18.707,48.000 18.554,48.000 18.493 C 48.000 18.326,46.447 17.551,45.851 17.421 C 45.566 17.358,45.333 17.253,45.333 17.187 C 45.333 17.055,43.615 16.667,43.032 16.667 C 42.831 16.667,42.667 16.592,42.667 16.500 C 42.667 16.395,41.611 16.333,39.833 16.333 C 38.275 16.333,37.000 16.391,37.000 16.462 C 37.000 16.533,36.423 16.683,35.718 16.795 C 35.013 16.908,34.395 17.064,34.343 17.144 C 34.292 17.223,34.063 17.341,33.833 17.404 C 33.246 17.568,31.626 18.365,31.363 18.620 C 31.242 18.737,31.039 18.833,30.913 18.833 C 30.787 18.833,30.623 18.935,30.550 19.059 C 30.477 19.183,30.257 19.368,30.062 19.471 C 29.711 19.655,28.784 20.554,26.292 23.128 C 25.581 23.861,25.000 24.414,24.999 24.356 C 24.998 24.298,24.861 24.457,24.695 24.710 C 24.528 24.962,24.341 25.119,24.279 25.057 C 24.217 24.995,24.167 25.020,24.167 25.112 C 24.167 25.284,22.258 27.268,21.027 28.375 C 20.645 28.719,20.364 29.000,20.402 29.000 C 20.441 29.000,20.217 29.281,19.904 29.625 C 18.972 30.651,18.871 30.785,18.755 31.150 C 18.694 31.343,18.570 31.500,18.479 31.500 C 18.388 31.500,18.360 31.575,18.417 31.667 C 18.473 31.758,18.454 31.833,18.374 31.833 C 18.214 31.833,17.578 33.206,17.398 33.945 C 17.334 34.204,17.218 34.459,17.141 34.510 C 17.063 34.561,16.908 35.180,16.795 35.885 C 16.683 36.590,16.533 37.167,16.462 37.167 C 16.275 37.167,16.304 42.118,16.493 42.461 C 16.581 42.620,16.738 43.294,16.842 43.958 C 16.945 44.623,17.090 45.167,17.163 45.167 C 17.236 45.167,17.345 45.427,17.405 45.745 C 17.464 46.063,17.611 46.421,17.731 46.541 C 17.851 46.661,18.042 47.038,18.154 47.380 C 18.267 47.721,18.428 48.000,18.513 48.000 C 18.597 48.000,18.667 48.078,18.667 48.174 C 18.667 48.450,19.992 50.189,20.730 50.881 L 21.403 51.513 20.993 52.298 C 20.768 52.730,20.517 53.131,20.437 53.190 C 20.356 53.248,20.342 53.379,20.405 53.481 C 20.468 53.583,20.448 53.667,20.359 53.667 C 20.231 53.667,19.789 54.617,19.833 54.798 C 19.840 54.824,19.730 54.960,19.589 55.101 C 19.449 55.242,19.333 55.448,19.333 55.560 C 19.333 55.672,19.183 56.057,19.000 56.417 C 18.817 56.776,18.667 57.205,18.667 57.369 C 18.667 57.533,18.598 57.667,18.513 57.667 C 18.429 57.667,18.307 57.907,18.242 58.202 C 18.178 58.496,17.989 59.002,17.823 59.327 C 17.657 59.651,17.471 60.198,17.409 60.542 C 17.347 60.885,17.240 61.167,17.171 61.167 C 17.102 61.167,16.950 61.617,16.833 62.167 L 16.621 63.167 15.061 63.167 C 14.202 63.167,13.500 63.225,13.500 63.296 C 13.500 63.367,12.923 63.517,12.218 63.629 C 11.513 63.741,10.895 63.897,10.843 63.976 C 10.792 64.055,10.356 64.219,9.875 64.341 C 9.394 64.463,9.000 64.617,9.000 64.682 C 9.000 64.747,8.775 64.879,8.500 64.975 C 8.225 65.071,8.000 65.222,8.000 65.311 C 8.000 65.401,7.774 65.523,7.499 65.584 C 7.223 65.644,6.920 65.838,6.826 66.014 C 6.732 66.189,6.564 66.335,6.452 66.336 C 6.341 66.338,6.073 66.525,5.858 66.753 C 5.642 66.980,5.397 67.167,5.313 67.167 C 5.154 67.167,4.853 67.486,3.588 69.000 C 2.505 70.295,2.519 70.276,2.306 70.744 C 2.200 70.976,2.050 71.167,1.973 71.167 C 1.896 71.167,1.833 71.268,1.833 71.392 C 1.833 71.516,1.655 71.953,1.436 72.364 C 1.217 72.776,0.983 73.368,0.915 73.681 C 0.847 73.994,0.724 74.293,0.641 74.346 C -0.213 74.892,-0.257 92.506,0.592 94.417 C 0.714 94.692,0.896 95.235,0.997 95.625 C 1.097 96.015,1.252 96.333,1.340 96.333 C 1.428 96.333,1.500 96.435,1.500 96.560 C 1.500 96.809,2.421 98.597,2.726 98.940 C 2.831 99.058,3.292 99.600,3.750 100.144 C 4.208 100.687,4.750 101.226,4.953 101.341 C 5.156 101.456,5.290 101.603,5.250 101.667 C 5.210 101.731,5.363 101.882,5.589 102.003 C 5.815 102.124,6.000 102.287,6.000 102.366 C 6.000 102.444,6.188 102.580,6.417 102.667 C 6.646 102.754,6.833 102.888,6.833 102.965 C 6.833 103.042,7.096 103.207,7.417 103.333 C 7.738 103.459,8.000 103.620,8.000 103.691 C 8.000 103.762,8.300 103.910,8.667 104.020 C 9.033 104.130,9.333 104.280,9.333 104.353 C 9.333 104.427,9.652 104.573,10.042 104.677 C 10.431 104.782,10.788 104.929,10.835 105.005 C 11.170 105.541,38.333 106.111,38.333 105.581 C 38.333 105.534,38.262 105.365,38.175 105.206 C 38.088 105.047,37.819 104.429,37.578 103.833 C 37.336 103.237,37.036 102.525,36.911 102.250 C 36.785 101.975,36.597 101.412,36.492 101.000 C 36.387 100.587,36.240 100.175,36.165 100.083 C 36.091 99.992,35.977 99.635,35.913 99.292 C 35.849 98.948,35.740 98.667,35.671 98.667 C 35.602 98.667,35.452 98.085,35.338 97.375 C 35.224 96.665,35.067 96.044,34.990 95.995 C 34.912 95.947,34.757 95.197,34.643 94.328 C 34.530 93.460,34.386 92.712,34.322 92.667 C 34.168 92.555,33.833 89.038,33.833 87.533 C 33.833 86.844,33.762 86.333,33.667 86.333 C 33.566 86.333,33.500 85.614,33.500 84.510 C 33.500 83.474,33.572 82.642,33.667 82.583 C 33.758 82.527,33.833 82.016,33.832 81.448 C 33.830 80.002,34.193 76.167,34.331 76.167 C 34.394 76.167,34.542 75.417,34.658 74.500 C 34.775 73.583,34.923 72.833,34.986 72.833 C 35.049 72.833,35.200 72.271,35.322 71.583 C 35.445 70.896,35.601 70.333,35.670 70.333 C 35.740 70.333,35.849 70.052,35.913 69.708 C 35.977 69.365,36.088 69.008,36.160 68.917 C 36.232 68.825,36.389 68.356,36.510 67.875 C 36.631 67.394,36.779 67.000,36.838 67.000 C 36.898 67.000,37.046 66.587,37.167 66.083 C 37.288 65.579,37.435 65.167,37.493 65.167 C 37.552 65.167,37.696 64.885,37.813 64.542 C 38.057 63.827,38.701 62.457,38.851 62.333 C 38.906 62.288,39.043 61.969,39.155 61.625 C 39.267 61.281,39.422 61.000,39.500 61.000 C 39.577 61.000,39.690 60.775,39.750 60.501 C 39.810 60.227,39.952 59.945,40.064 59.876 C 40.177 59.807,40.373 59.487,40.500 59.167 C 40.627 58.846,40.823 58.527,40.936 58.457 C 41.048 58.388,41.190 58.107,41.250 57.832 C 41.310 57.558,41.431 57.333,41.517 57.333 C 41.604 57.333,41.746 57.146,41.833 56.917 C 41.920 56.687,42.050 56.500,42.122 56.500 C 42.193 56.500,42.359 56.256,42.489 55.958 C 42.619 55.660,42.863 55.319,43.030 55.199 C 43.197 55.079,43.333 54.910,43.333 54.824 C 43.333 54.737,43.451 54.535,43.595 54.375 C 44.168 53.737,44.666 53.077,44.666 52.953 C 44.667 52.882,44.929 52.582,45.250 52.288 C 45.571 51.993,45.833 51.689,45.833 51.612 C 45.833 51.534,46.246 51.068,46.750 50.576 C 47.254 50.084,47.667 49.618,47.667 49.541 C 47.667 49.464,48.199 48.917,48.850 48.326 C 49.501 47.734,50.336 46.965,50.706 46.616 C 51.075 46.267,51.799 45.649,52.314 45.241 C 52.829 44.834,53.403 44.350,53.589 44.167 C 53.776 43.983,53.982 43.833,54.048 43.833 C 54.113 43.833,54.311 43.702,54.488 43.542 C 55.081 43.004,55.318 42.833,55.744 42.639 C 55.976 42.533,56.167 42.393,56.167 42.327 C 56.167 42.261,56.392 42.114,56.667 42.000 C 56.942 41.886,57.167 41.732,57.167 41.657 C 57.167 41.583,57.429 41.427,57.750 41.311 C 58.071 41.195,58.333 41.041,58.333 40.969 C 58.333 40.897,58.577 40.722,58.875 40.580 C 59.748 40.163,60.410 39.791,60.500 39.665 C 60.546 39.601,60.865 39.457,61.208 39.345 C 61.552 39.233,61.833 39.084,61.833 39.013 C 61.833 38.943,62.133 38.796,62.500 38.686 C 62.867 38.577,63.167 38.422,63.167 38.342 C 63.167 38.263,63.542 38.101,64.000 37.984 C 64.458 37.866,64.833 37.719,64.833 37.657 C 64.833 37.594,65.171 37.449,65.583 37.333 C 65.996 37.218,66.333 37.070,66.333 37.005 C 66.333 36.940,66.746 36.788,67.250 36.667 C 67.754 36.546,68.167 36.392,68.167 36.326 C 68.167 36.259,68.654 36.112,69.250 36.000 C 69.846 35.888,70.333 35.736,70.333 35.663 C 70.333 35.590,70.877 35.439,71.542 35.328 C 72.206 35.216,72.787 35.076,72.833 35.015 C 72.929 34.888,75.131 34.500,75.753 34.500 C 75.981 34.500,76.167 34.436,76.167 34.358 C 76.167 34.194,79.885 33.830,81.542 33.832 C 82.181 33.833,82.667 33.761,82.667 33.667 C 82.667 33.565,83.417 33.500,84.583 33.500 C 85.750 33.500,86.500 33.565,86.500 33.667 C 86.500 33.760,86.955 33.833,87.533 33.833 C 88.978 33.833,92.349 34.156,92.750 34.332 C 92.933 34.413,93.740 34.567,94.542 34.674 C 95.344 34.780,96.000 34.922,96.000 34.987 C 96.000 35.053,96.600 35.204,97.333 35.323 C 98.067 35.442,98.667 35.594,98.667 35.660 C 98.667 35.726,99.098 35.876,99.625 35.992 C 100.152 36.108,100.658 36.259,100.750 36.326 C 100.842 36.393,101.273 36.545,101.708 36.662 C 102.144 36.780,102.500 36.930,102.500 36.995 C 102.500 37.060,102.912 37.212,103.417 37.333 C 103.921 37.454,104.333 37.604,104.333 37.667 C 104.333 37.768,105.451 38.167,105.735 38.167 C 105.936 38.167,105.771 12.502,105.570 12.369 C 105.471 12.303,105.292 11.781,105.172 11.208 C 105.052 10.635,104.899 10.167,104.830 10.167 C 104.762 10.167,104.621 9.829,104.517 9.417 C 104.414 9.004,104.269 8.667,104.195 8.667 C 104.122 8.667,103.959 8.404,103.833 8.083 C 103.707 7.763,103.543 7.500,103.469 7.500 C 103.394 7.500,103.333 7.388,103.333 7.251 C 103.333 7.115,103.183 6.909,103.000 6.795 C 102.817 6.680,102.667 6.500,102.667 6.394 C 102.667 6.288,102.480 6.025,102.253 5.809 C 102.025 5.593,101.838 5.341,101.836 5.249 C 101.835 5.156,101.491 4.781,101.072 4.415 C 100.653 4.049,100.138 3.581,99.928 3.375 C 99.717 3.169,99.492 3.000,99.428 3.000 C 99.364 3.000,99.065 2.812,98.765 2.583 C 98.464 2.354,98.132 2.167,98.026 2.167 C 97.920 2.167,97.833 2.104,97.833 2.027 C 97.833 1.950,97.533 1.788,97.167 1.667 C 96.800 1.546,96.500 1.391,96.500 1.323 C 96.500 1.255,96.106 1.107,95.625 0.992 C 95.144 0.878,94.712 0.730,94.667 0.663 C 94.354 0.207,79.713 -0.258,77.083 0.105 M331.252 45.948 C 330.887 45.990,330.549 46.079,330.502 46.145 C 330.455 46.211,329.817 46.363,329.083 46.483 C 328.350 46.603,327.712 46.758,327.667 46.827 C 327.621 46.896,327.190 47.052,326.708 47.174 C 326.227 47.296,325.833 47.445,325.833 47.505 C 325.833 47.564,325.533 47.712,325.167 47.833 C 324.800 47.954,324.500 48.104,324.500 48.167 C 324.500 48.229,324.200 48.379,323.833 48.500 C 323.467 48.621,323.167 48.783,323.167 48.860 C 323.167 48.937,323.065 49.000,322.940 49.000 C 322.815 49.000,322.448 49.180,322.124 49.400 C 321.800 49.620,321.358 49.856,321.142 49.924 C 320.926 49.992,320.652 50.187,320.532 50.357 C 320.412 50.527,320.206 50.667,320.074 50.667 C 319.942 50.667,319.833 50.724,319.833 50.795 C 319.833 50.865,319.635 51.043,319.393 51.190 C 318.893 51.493,315.833 54.490,315.833 54.677 C 315.833 54.743,315.611 55.036,315.339 55.327 C 315.067 55.619,314.602 56.283,314.305 56.803 C 314.009 57.324,313.669 57.849,313.550 57.970 C 313.431 58.091,313.288 58.372,313.232 58.595 C 313.176 58.818,313.076 59.000,313.009 59.000 C 312.942 59.000,312.788 59.300,312.667 59.667 C 312.546 60.033,312.392 60.333,312.325 60.333 C 312.258 60.333,312.104 60.671,311.982 61.083 C 311.860 61.496,311.712 61.833,311.653 61.833 C 311.594 61.833,311.450 62.283,311.333 62.833 C 311.217 63.383,311.072 63.833,311.011 63.833 C 310.891 63.833,310.500 65.929,310.500 66.573 C 310.500 66.792,310.409 67.003,310.297 67.040 C 310.034 67.128,310.003 74.291,310.266 74.468 C 310.360 74.531,310.530 75.294,310.643 76.162 C 310.757 77.030,310.912 77.780,310.988 77.828 C 311.064 77.877,311.222 78.348,311.340 78.875 C 311.457 79.402,311.609 79.833,311.677 79.833 C 311.745 79.833,311.890 80.208,312.000 80.667 C 312.110 81.125,312.255 81.500,312.323 81.500 C 312.391 81.500,312.546 81.800,312.667 82.167 C 312.788 82.533,312.936 82.833,312.996 82.833 C 313.055 82.833,313.207 83.096,313.333 83.417 C 313.459 83.737,313.614 84.000,313.678 84.000 C 313.741 84.000,313.886 84.225,314.000 84.500 C 314.114 84.775,314.264 85.000,314.333 85.000 C 314.403 85.000,314.551 85.220,314.662 85.488 C 314.773 85.756,314.969 86.017,315.099 86.066 C 315.228 86.116,315.334 86.252,315.335 86.370 C 315.336 86.487,315.635 86.846,316.000 87.167 C 316.365 87.487,316.664 87.818,316.665 87.901 C 316.667 88.093,317.926 89.333,318.119 89.333 C 318.198 89.333,318.525 89.615,318.844 89.958 C 319.163 90.302,319.628 90.690,319.878 90.820 C 320.129 90.950,320.333 91.110,320.333 91.175 C 320.333 91.240,320.558 91.386,320.833 91.500 C 321.108 91.614,321.333 91.764,321.333 91.833 C 321.333 91.903,321.577 92.058,321.875 92.178 C 322.173 92.299,322.473 92.489,322.543 92.602 C 322.612 92.715,322.893 92.857,323.168 92.917 C 323.442 92.977,323.667 93.093,323.667 93.173 C 323.667 93.254,323.967 93.410,324.333 93.520 C 324.700 93.630,325.000 93.766,325.000 93.823 C 325.000 93.880,325.356 94.031,325.792 94.158 C 326.227 94.284,326.621 94.444,326.667 94.512 C 326.713 94.581,327.238 94.735,327.834 94.854 C 328.429 94.974,328.954 95.120,329.000 95.179 C 329.119 95.330,331.528 95.667,332.497 95.667 C 332.946 95.667,333.360 95.742,333.417 95.833 C 333.475 95.927,334.280 96.000,335.260 96.000 C 336.309 96.000,337.000 95.934,337.000 95.833 C 337.000 95.742,337.332 95.667,337.738 95.667 C 338.720 95.667,341.060 95.336,341.166 95.182 C 341.212 95.115,341.794 94.965,342.458 94.848 C 343.123 94.732,343.667 94.577,343.667 94.505 C 343.667 94.432,344.004 94.288,344.417 94.184 C 344.829 94.080,345.167 93.935,345.167 93.862 C 345.167 93.789,345.429 93.626,345.750 93.500 C 346.071 93.374,346.333 93.218,346.333 93.154 C 346.333 93.090,346.594 92.988,346.912 92.929 C 347.230 92.869,347.549 92.728,347.620 92.615 C 347.753 92.405,348.556 92.000,348.840 92.000 C 348.927 92.000,349.669 92.656,350.488 93.458 C 351.307 94.260,352.091 95.010,352.231 95.125 C 352.534 95.373,353.500 95.405,353.500 95.167 C 353.500 95.075,353.587 95.000,353.694 95.000 C 353.801 95.000,355.151 93.730,356.694 92.178 L 359.500 89.355 359.500 88.504 L 359.500 87.654 357.917 86.071 C 356.454 84.607,356.118 84.167,356.469 84.167 C 356.543 84.167,356.707 83.904,356.833 83.583 C 356.959 83.262,357.120 83.000,357.191 83.000 C 357.262 83.000,357.410 82.700,357.520 82.333 C 357.630 81.967,357.780 81.667,357.853 81.667 C 357.927 81.667,358.077 81.367,358.186 81.000 C 358.296 80.633,358.437 80.333,358.500 80.333 C 358.562 80.333,358.710 79.902,358.827 79.375 C 358.944 78.848,359.104 78.376,359.181 78.327 C 359.259 78.278,359.416 77.678,359.530 76.994 C 359.644 76.310,359.793 75.710,359.861 75.661 C 360.300 75.347,360.297 66.137,359.858 65.841 C 359.783 65.791,359.631 65.190,359.520 64.505 C 359.409 63.820,359.256 63.220,359.179 63.172 C 359.103 63.123,358.944 62.652,358.827 62.125 C 358.710 61.598,358.554 61.167,358.480 61.167 C 358.407 61.167,358.257 60.867,358.147 60.500 C 358.037 60.133,357.896 59.833,357.834 59.833 C 357.771 59.833,357.621 59.533,357.500 59.167 C 357.379 58.800,357.223 58.500,357.153 58.500 C 357.083 58.500,356.939 58.237,356.833 57.915 C 356.727 57.593,356.579 57.368,356.504 57.414 C 356.430 57.460,356.323 57.316,356.268 57.094 C 356.212 56.872,356.073 56.590,355.958 56.468 C 355.844 56.346,355.381 55.769,354.931 55.186 C 354.083 54.088,352.020 51.964,351.318 51.465 C 350.651 50.992,350.143 50.598,349.839 50.317 C 349.680 50.170,349.314 49.946,349.025 49.818 C 348.736 49.690,348.500 49.538,348.500 49.480 C 348.500 49.421,348.275 49.281,348.000 49.167 C 347.725 49.053,347.500 48.906,347.500 48.839 C 347.500 48.773,347.200 48.630,346.833 48.520 C 346.467 48.410,346.167 48.255,346.167 48.175 C 346.167 48.096,345.792 47.935,345.333 47.817 C 344.875 47.700,344.500 47.559,344.500 47.505 C 344.500 47.451,344.144 47.304,343.708 47.179 C 343.273 47.054,342.842 46.895,342.750 46.826 C 342.658 46.756,341.983 46.602,341.250 46.482 C 340.517 46.363,339.864 46.188,339.800 46.095 C 339.681 45.921,332.543 45.798,331.252 45.948 M119.174 46.826 C 118.832 47.168,118.832 47.175,118.874 70.959 L 118.917 94.750 119.292 94.915 C 119.498 95.005,119.667 95.136,119.667 95.206 C 119.667 95.276,121.467 95.333,123.667 95.333 C 126.222 95.333,127.667 95.273,127.667 95.167 C 127.667 95.075,127.786 95.000,127.932 95.000 C 128.078 95.000,128.237 94.850,128.285 94.667 C 128.333 94.483,128.438 94.333,128.519 94.333 C 128.603 94.333,128.667 90.717,128.667 86.015 L 128.667 77.696 135.361 77.640 C 140.528 77.596,142.072 77.536,142.125 77.375 C 142.163 77.260,142.370 77.167,142.585 77.167 C 143.137 77.167,144.667 76.798,144.667 76.665 C 144.667 76.603,144.967 76.454,145.333 76.333 C 145.700 76.212,146.000 76.065,146.000 76.007 C 146.000 75.948,146.262 75.805,146.583 75.689 C 146.904 75.573,147.167 75.413,147.167 75.334 C 147.167 75.254,147.325 75.139,147.518 75.077 C 147.945 74.942,151.167 71.907,151.167 71.641 C 151.167 71.577,151.272 71.418,151.401 71.289 C 151.800 70.891,153.141 68.223,153.259 67.594 C 153.320 67.268,153.427 67.000,153.496 67.000 C 153.659 67.000,154.000 65.291,154.000 64.472 C 154.000 64.121,154.075 63.833,154.167 63.833 C 154.267 63.833,154.333 63.139,154.333 62.083 C 154.333 61.028,154.267 60.333,154.167 60.333 C 154.075 60.333,154.000 60.061,154.000 59.728 C 154.000 58.908,153.639 57.000,153.484 57.000 C 153.416 57.000,153.307 56.761,153.243 56.469 C 153.124 55.927,151.792 53.285,151.443 52.898 C 151.337 52.781,150.912 52.238,150.500 51.691 C 150.087 51.145,149.564 50.598,149.337 50.474 C 149.110 50.351,148.698 50.006,148.421 49.708 C 148.145 49.410,147.822 49.167,147.704 49.167 C 147.586 49.167,147.449 49.061,147.399 48.932 C 147.350 48.802,147.141 48.655,146.935 48.603 C 146.730 48.551,146.388 48.359,146.176 48.175 C 145.964 47.991,145.538 47.793,145.229 47.735 C 144.920 47.677,144.667 47.568,144.667 47.493 C 144.667 47.419,144.235 47.263,143.708 47.147 C 143.181 47.032,142.697 46.858,142.631 46.760 C 142.368 46.368,119.568 46.432,119.174 46.826 M368.839 46.865 C 368.499 47.230,368.499 47.268,368.541 70.990 L 368.583 94.750 368.958 94.915 C 369.165 95.005,369.333 95.136,369.333 95.206 C 369.333 95.276,376.008 95.333,384.167 95.333 C 393.944 95.333,399.000 95.277,399.000 95.167 C 399.000 95.075,399.111 95.000,399.246 95.000 C 400.014 95.000,400.411 87.145,399.688 86.275 C 399.480 86.025,398.506 86.000,388.813 86.000 L 378.167 86.000 378.167 66.615 C 378.167 47.336,378.165 47.228,377.827 46.865 C 377.296 46.295,369.371 46.295,368.839 46.865 M77.708 49.186 C 77.410 49.272,77.167 49.408,77.167 49.487 C 77.167 49.566,76.971 49.680,76.732 49.740 C 76.112 49.895,74.458 51.600,73.909 52.651 C 73.213 53.983,73.110 57.920,73.755 58.565 C 73.881 58.690,74.034 58.996,74.097 59.243 C 74.159 59.491,74.312 59.733,74.438 59.781 C 74.564 59.830,74.667 59.955,74.668 60.059 C 74.671 60.305,75.726 61.333,75.976 61.333 C 76.081 61.333,76.167 61.391,76.167 61.462 C 76.167 62.141,80.037 63.068,81.318 62.695 C 81.647 62.599,82.273 62.432,82.708 62.322 C 83.144 62.213,83.500 62.058,83.500 61.978 C 83.500 61.899,83.615 61.833,83.755 61.833 C 83.896 61.833,84.051 61.728,84.101 61.599 C 84.150 61.469,84.391 61.278,84.637 61.174 C 85.093 60.980,86.167 59.706,86.167 59.359 C 86.167 59.253,86.236 59.167,86.321 59.167 C 86.406 59.167,86.568 58.754,86.681 58.250 C 86.794 57.746,86.949 57.333,87.027 57.333 C 87.104 57.333,87.167 56.658,87.167 55.833 C 87.167 55.008,87.102 54.333,87.023 54.333 C 86.943 54.333,86.833 54.003,86.778 53.598 C 86.617 52.426,84.683 49.969,83.732 49.731 C 83.513 49.676,83.333 49.573,83.333 49.502 C 83.333 49.065,78.976 48.820,77.708 49.186 M278.500 52.797 C 278.500 52.869,277.776 53.014,276.892 53.119 C 276.008 53.224,275.239 53.376,275.184 53.457 C 275.129 53.538,274.652 53.698,274.125 53.814 C 273.598 53.929,273.167 54.077,273.167 54.142 C 273.167 54.207,272.829 54.360,272.417 54.482 C 272.004 54.604,271.667 54.758,271.667 54.825 C 271.667 54.892,271.367 55.037,271.000 55.147 C 270.633 55.257,270.333 55.419,270.333 55.507 C 270.333 55.595,270.247 55.667,270.141 55.667 C 270.035 55.667,269.702 55.854,269.402 56.083 C 269.101 56.313,268.779 56.500,268.686 56.500 C 268.593 56.500,268.457 56.602,268.383 56.726 C 268.310 56.850,268.066 57.048,267.841 57.166 C 267.382 57.408,264.974 59.802,264.333 60.655 C 264.104 60.959,263.785 61.349,263.625 61.521 C 263.465 61.693,263.333 61.899,263.333 61.980 C 263.333 62.060,263.222 62.219,263.085 62.332 C 262.949 62.445,262.874 62.598,262.920 62.671 C 262.965 62.745,262.945 62.830,262.876 62.861 C 262.635 62.968,262.051 63.921,261.847 64.542 C 261.733 64.885,261.580 65.167,261.506 65.167 C 261.431 65.167,261.321 65.429,261.261 65.750 C 261.201 66.071,261.092 66.333,261.020 66.333 C 260.948 66.333,260.881 66.427,260.872 66.542 C 260.836 66.982,260.439 68.254,260.310 68.341 C 260.235 68.391,260.090 69.178,259.987 70.091 C 259.884 71.003,259.733 71.880,259.650 72.039 C 259.441 72.443,259.456 76.500,259.667 76.500 C 259.758 76.500,259.833 76.799,259.833 77.164 C 259.833 78.016,260.200 80.167,260.346 80.167 C 260.407 80.167,260.508 80.485,260.570 80.875 C 260.633 81.265,260.778 81.733,260.893 81.917 C 261.008 82.100,261.195 82.569,261.308 82.958 C 261.421 83.348,261.579 83.667,261.660 83.667 C 261.741 83.667,261.856 83.892,261.917 84.167 C 261.977 84.442,262.084 84.667,262.155 84.667 C 262.225 84.667,262.408 84.948,262.562 85.292 C 263.013 86.303,263.340 86.833,263.513 86.833 C 263.602 86.833,263.746 87.021,263.833 87.250 C 263.920 87.479,264.064 87.667,264.151 87.667 C 264.239 87.667,264.357 87.813,264.414 87.992 C 264.522 88.333,267.119 91.000,267.343 91.000 C 267.414 91.000,267.735 91.256,268.056 91.568 C 268.378 91.881,268.797 92.186,268.987 92.246 C 269.178 92.306,269.333 92.421,269.333 92.500 C 269.333 92.580,269.596 92.740,269.917 92.856 C 270.237 92.972,270.500 93.115,270.500 93.173 C 270.500 93.232,270.800 93.379,271.167 93.500 C 271.533 93.621,271.833 93.775,271.833 93.842 C 271.833 93.908,272.171 94.063,272.583 94.185 C 272.996 94.306,273.333 94.461,273.333 94.528 C 273.333 94.595,273.783 94.738,274.333 94.847 C 274.883 94.955,275.333 95.097,275.333 95.163 C 275.333 95.308,277.801 95.667,278.792 95.667 C 279.181 95.667,279.500 95.742,279.500 95.833 C 279.500 95.933,280.167 96.000,281.167 96.000 C 282.083 96.000,282.833 95.941,282.833 95.870 C 282.833 95.798,283.598 95.648,284.532 95.537 C 285.466 95.425,286.272 95.269,286.323 95.191 C 286.375 95.112,286.810 94.948,287.292 94.826 C 287.773 94.704,288.167 94.549,288.167 94.481 C 288.167 94.414,288.446 94.267,288.787 94.154 C 289.128 94.042,289.509 93.849,289.632 93.725 C 289.756 93.601,289.961 93.500,290.087 93.500 C 290.213 93.500,290.377 93.406,290.450 93.291 C 290.523 93.177,290.808 92.970,291.082 92.833 C 291.356 92.696,291.784 92.377,292.034 92.125 C 292.284 91.873,292.555 91.667,292.635 91.667 C 292.716 91.667,292.925 91.509,293.099 91.315 L 293.417 90.964 293.532 91.607 C 293.596 91.961,293.652 92.569,293.657 92.958 C 293.662 93.348,293.731 93.667,293.809 93.667 C 293.888 93.667,294.021 93.910,294.105 94.208 C 294.220 94.617,294.390 94.789,294.796 94.909 C 295.091 94.997,295.333 95.128,295.333 95.201 C 295.333 95.274,296.608 95.333,298.167 95.333 C 299.944 95.333,301.000 95.271,301.000 95.167 C 301.000 95.075,301.184 95.000,301.409 95.000 C 302.025 95.000,302.608 94.678,302.815 94.224 C 303.009 93.798,303.093 55.112,302.901 54.399 C 302.690 53.611,301.508 53.333,298.363 53.333 C 296.566 53.333,295.500 53.395,295.500 53.500 C 295.500 53.592,295.387 53.667,295.249 53.667 C 295.093 53.667,294.923 53.949,294.798 54.417 C 294.688 54.829,294.538 55.167,294.465 55.167 C 294.393 55.167,294.327 55.523,294.319 55.958 C 294.311 56.394,294.254 57.120,294.194 57.573 L 294.083 58.395 293.069 57.364 C 292.511 56.797,292.005 56.333,291.944 56.333 C 291.883 56.333,291.689 56.202,291.512 56.042 C 290.906 55.492,290.679 55.332,290.215 55.128 C 289.959 55.015,289.712 54.884,289.667 54.837 C 289.477 54.639,288.820 54.333,288.586 54.333 C 288.447 54.333,288.333 54.264,288.333 54.179 C 288.333 54.094,287.921 53.932,287.417 53.819 C 286.912 53.706,286.500 53.561,286.500 53.496 C 286.500 53.356,284.806 53.000,284.139 53.000 C 283.879 53.000,283.667 52.925,283.667 52.833 C 283.667 52.729,282.694 52.667,281.083 52.667 C 279.662 52.667,278.500 52.725,278.500 52.797 M162.167 53.500 C 162.167 53.592,162.063 53.667,161.936 53.667 C 161.284 53.667,161.167 54.345,161.167 58.132 C 161.167 62.144,161.124 61.974,162.289 62.625 C 162.737 62.875,169.005 62.922,169.461 62.679 C 169.620 62.594,169.883 62.483,170.045 62.433 C 170.208 62.382,170.390 62.208,170.450 62.045 C 170.510 61.883,170.639 61.696,170.738 61.631 C 171.484 61.135,170.835 53.667,170.046 53.667 C 169.929 53.667,169.833 53.592,169.833 53.500 C 169.833 53.394,168.444 53.333,166.000 53.333 C 163.556 53.333,162.167 53.394,162.167 53.500 M180.917 53.515 C 180.825 53.606,180.600 53.784,180.417 53.910 C 179.838 54.309,179.910 60.767,180.500 61.389 C 180.729 61.630,181.043 61.829,181.198 61.830 C 181.354 61.832,181.527 61.908,181.583 62.000 C 181.650 62.108,185.255 62.167,191.852 62.167 L 202.017 62.167 201.550 62.783 C 201.293 63.122,200.840 63.644,200.542 63.944 C 200.244 64.244,200.000 64.536,200.000 64.593 C 200.000 64.650,199.681 65.020,199.292 65.417 C 198.902 65.813,198.476 66.275,198.344 66.443 C 198.003 66.881,196.747 68.297,195.984 69.105 C 195.626 69.484,195.333 69.847,195.333 69.912 C 195.333 69.977,195.015 70.354,194.625 70.750 C 194.235 71.146,193.842 71.570,193.750 71.693 C 193.362 72.214,191.066 74.761,190.875 74.883 C 190.760 74.957,190.667 75.094,190.667 75.189 C 190.667 75.284,190.254 75.758,189.750 76.243 C 189.246 76.727,188.833 77.181,188.833 77.250 C 188.833 77.320,188.582 77.615,188.274 77.905 C 187.966 78.195,187.621 78.607,187.507 78.820 C 187.393 79.034,187.007 79.477,186.650 79.806 C 186.292 80.134,186.000 80.462,186.000 80.535 C 186.000 80.607,185.719 80.958,185.375 81.315 C 184.444 82.279,182.937 84.003,182.769 84.296 C 182.687 84.437,182.331 84.819,181.977 85.144 C 181.623 85.470,181.333 85.797,181.333 85.870 C 181.333 85.944,180.964 86.372,180.512 86.822 C 179.472 87.856,179.335 88.354,179.334 91.114 C 179.333 93.832,179.591 94.589,180.625 94.907 C 180.831 94.971,181.000 95.092,181.000 95.178 C 181.000 95.273,187.120 95.333,196.750 95.333 C 207.139 95.333,212.500 95.277,212.500 95.167 C 212.500 95.075,212.640 95.000,212.811 95.000 C 213.170 95.000,214.000 94.229,214.000 93.894 C 214.000 93.769,214.075 93.667,214.167 93.667 C 214.271 93.667,214.333 92.611,214.333 90.833 C 214.333 89.275,214.274 88.000,214.201 88.000 C 214.128 88.000,213.997 87.759,213.909 87.464 C 213.678 86.685,213.912 86.701,202.542 86.683 C 195.995 86.673,192.167 86.607,192.167 86.506 C 192.167 86.417,192.373 86.131,192.625 85.870 C 192.877 85.610,193.435 84.988,193.864 84.490 C 195.767 82.280,196.562 81.368,197.455 80.371 C 197.842 79.938,198.161 79.535,198.163 79.477 C 198.165 79.418,198.580 78.931,199.085 78.393 C 200.929 76.433,201.167 76.164,201.170 76.042 C 201.172 75.973,201.509 75.583,201.920 75.175 C 202.331 74.767,202.667 74.379,202.667 74.313 C 202.667 74.247,202.967 73.898,203.333 73.539 C 203.700 73.179,204.000 72.829,204.000 72.761 C 204.000 72.693,204.319 72.311,204.708 71.912 C 205.383 71.221,205.850 70.697,207.821 68.417 C 208.296 67.867,208.981 67.091,209.342 66.694 C 209.704 66.297,210.000 65.933,210.000 65.885 C 210.000 65.838,210.261 65.525,210.580 65.191 C 211.130 64.615,212.235 63.370,212.878 62.602 C 213.039 62.408,213.339 62.070,213.544 61.850 C 213.900 61.468,213.919 61.301,213.968 58.110 C 214.029 54.206,214.018 54.142,213.242 53.684 C 212.576 53.291,181.307 53.128,180.917 53.515 M221.167 53.500 C 221.167 53.592,221.063 53.667,220.936 53.667 C 220.114 53.667,219.833 54.673,219.833 57.628 C 219.833 59.177,219.890 60.501,219.958 60.569 C 220.027 60.638,220.084 60.744,220.085 60.806 C 220.088 61.136,220.681 61.678,221.140 61.770 C 221.430 61.828,221.667 61.941,221.667 62.021 C 221.667 62.103,226.180 62.167,231.939 62.167 L 242.211 62.167 241.439 62.939 C 241.014 63.363,240.667 63.767,240.667 63.837 C 240.667 63.906,240.273 64.381,239.792 64.891 C 239.310 65.402,238.617 66.165,238.250 66.587 C 237.883 67.009,237.227 67.739,236.792 68.209 C 236.356 68.679,236.000 69.111,236.000 69.169 C 236.000 69.227,235.606 69.692,235.125 70.203 C 234.278 71.103,233.793 71.643,231.953 73.743 C 231.475 74.288,230.727 75.121,230.292 75.592 C 229.856 76.063,229.500 76.496,229.500 76.553 C 229.500 76.610,229.128 77.053,228.674 77.537 C 226.757 79.578,226.333 80.055,226.333 80.178 C 226.333 80.249,226.033 80.602,225.667 80.961 C 225.300 81.321,225.000 81.671,225.000 81.740 C 225.000 81.808,224.700 82.176,224.333 82.557 C 222.673 84.280,221.833 85.214,221.833 85.337 C 221.833 85.410,221.502 85.786,221.098 86.171 C 220.693 86.557,220.137 87.185,219.863 87.567 L 219.364 88.262 219.342 91.021 C 219.323 93.323,219.362 93.817,219.577 93.994 C 219.718 94.112,219.834 94.292,219.835 94.395 C 219.836 94.594,220.584 95.000,220.950 95.000 C 221.069 95.000,221.167 95.075,221.167 95.167 C 221.167 95.277,226.528 95.333,236.917 95.333 C 245.579 95.333,252.667 95.275,252.667 95.203 C 252.667 95.132,252.893 94.988,253.170 94.883 C 254.011 94.566,254.167 93.911,254.167 90.680 C 254.167 87.658,254.065 87.159,253.390 86.852 C 253.107 86.722,249.849 86.667,242.575 86.667 C 236.851 86.667,232.167 86.625,232.167 86.574 C 232.167 86.414,233.223 85.127,233.792 84.594 C 234.090 84.314,234.333 84.023,234.333 83.946 C 234.333 83.870,234.615 83.525,234.958 83.179 C 235.302 82.834,235.958 82.112,236.417 81.574 C 238.045 79.665,238.419 79.248,238.625 79.117 C 238.740 79.043,238.834 78.893,238.835 78.783 C 238.836 78.673,239.135 78.321,239.500 78.000 C 239.865 77.679,240.164 77.351,240.165 77.270 C 240.166 77.189,240.504 76.785,240.917 76.373 C 241.329 75.960,241.667 75.555,241.667 75.473 C 241.667 75.390,241.967 75.047,242.333 74.710 C 242.700 74.373,243.000 74.037,243.000 73.963 C 243.000 73.889,243.375 73.456,243.833 73.000 C 244.292 72.544,244.667 72.099,244.667 72.012 C 244.667 71.924,244.801 71.754,244.965 71.634 C 245.130 71.515,245.523 71.083,245.840 70.676 C 246.157 70.269,246.660 69.707,246.958 69.427 C 247.256 69.148,247.500 68.856,247.500 68.778 C 247.500 68.700,247.819 68.311,248.208 67.913 C 248.882 67.224,249.492 66.536,250.948 64.824 C 251.827 63.789,251.982 63.612,252.750 62.764 C 253.774 61.632,253.850 61.523,254.014 60.952 C 254.098 60.659,254.167 59.158,254.167 57.618 C 254.167 54.547,254.020 53.928,253.247 53.734 C 253.019 53.677,252.833 53.564,252.833 53.482 C 252.833 53.396,246.161 53.333,237.000 53.333 C 226.556 53.333,221.167 53.390,221.167 53.500 M140.000 55.664 C 140.412 55.886,140.775 56.127,140.806 56.200 C 140.836 56.274,140.957 56.333,141.075 56.333 C 141.362 56.333,142.833 57.816,142.833 58.105 C 142.833 58.231,142.912 58.333,143.009 58.333 C 143.105 58.333,143.262 58.558,143.358 58.833 C 143.454 59.108,143.587 59.333,143.654 59.333 C 143.862 59.333,144.167 60.971,144.167 62.083 C 144.167 63.196,143.862 64.833,143.654 64.833 C 143.587 64.833,143.454 65.058,143.358 65.333 C 143.262 65.608,143.105 65.833,143.009 65.833 C 142.912 65.833,142.833 65.934,142.833 66.057 C 142.833 66.351,141.586 67.617,141.164 67.751 C 140.982 67.809,140.833 67.920,140.833 67.998 C 140.833 68.077,140.552 68.231,140.208 68.342 C 139.865 68.453,139.478 68.627,139.350 68.730 C 139.192 68.856,137.422 68.934,133.891 68.969 L 128.667 69.021 128.667 62.085 L 128.667 55.149 133.958 55.205 C 139.186 55.261,139.259 55.266,140.000 55.664 M336.833 55.473 C 336.833 55.550,337.471 55.708,338.250 55.824 C 339.029 55.940,339.667 56.102,339.667 56.184 C 339.667 56.266,339.792 56.333,339.945 56.333 C 340.223 56.333,342.342 57.299,342.500 57.497 C 342.546 57.555,342.822 57.699,343.113 57.816 C 343.404 57.934,343.683 58.136,343.733 58.265 C 343.782 58.394,343.919 58.501,344.036 58.501 C 344.293 58.502,347.500 61.716,347.500 61.971 C 347.500 62.070,347.607 62.210,347.737 62.283 C 348.021 62.443,349.663 65.632,349.665 66.028 C 349.666 66.181,349.741 66.331,349.832 66.361 C 349.923 66.392,350.090 66.998,350.203 67.708 C 350.316 68.419,350.467 69.000,350.538 69.000 C 350.714 69.000,350.702 73.060,350.525 73.258 C 350.448 73.345,350.291 73.960,350.177 74.625 C 350.063 75.290,349.902 75.833,349.818 75.833 C 349.735 75.833,349.667 75.941,349.667 76.072 C 349.667 76.204,349.580 76.523,349.473 76.781 C 349.367 77.039,349.293 77.311,349.310 77.386 C 349.327 77.461,348.791 76.964,348.120 76.282 C 346.870 75.011,346.231 74.685,345.469 74.927 C 345.171 75.021,340.212 79.882,339.375 80.899 C 339.127 81.201,339.095 82.167,339.333 82.167 C 339.425 82.167,339.500 82.255,339.500 82.363 C 339.500 82.471,339.988 83.040,340.584 83.627 C 341.612 84.640,341.784 85.000,341.240 85.000 C 341.108 85.000,341.000 85.065,341.000 85.144 C 341.000 85.223,340.531 85.386,339.958 85.505 C 339.385 85.625,338.863 85.804,338.798 85.903 C 338.719 86.022,337.571 86.083,335.417 86.083 C 333.263 86.083,332.114 86.022,332.036 85.903 C 331.970 85.804,331.448 85.625,330.875 85.505 C 330.302 85.386,329.833 85.235,329.833 85.171 C 329.833 85.106,329.533 84.954,329.167 84.833 C 328.800 84.712,328.500 84.565,328.500 84.507 C 328.500 84.448,328.237 84.305,327.917 84.189 C 327.596 84.073,327.333 83.917,327.333 83.843 C 327.333 83.768,327.108 83.614,326.833 83.500 C 326.558 83.386,326.333 83.240,326.333 83.175 C 326.333 83.110,326.134 82.950,325.891 82.820 C 325.421 82.569,323.333 80.552,323.333 80.349 C 323.333 80.283,323.201 80.084,323.039 79.906 C 322.570 79.393,321.667 77.963,321.667 77.735 C 321.667 77.621,321.610 77.503,321.542 77.472 C 321.380 77.400,320.918 76.435,320.638 75.583 C 320.517 75.217,320.374 74.879,320.320 74.833 C 319.724 74.326,319.730 66.333,320.327 66.333 C 320.393 66.333,320.538 65.926,320.650 65.427 C 320.761 64.929,320.907 64.498,320.975 64.469 C 321.042 64.440,321.310 64.004,321.570 63.500 C 321.830 62.996,322.089 62.546,322.146 62.500 C 322.203 62.454,322.496 62.064,322.796 61.633 C 323.473 60.662,325.586 58.548,326.016 58.412 C 326.190 58.356,326.333 58.250,326.333 58.176 C 326.333 58.101,326.558 57.947,326.833 57.833 C 327.108 57.719,327.333 57.574,327.333 57.511 C 327.333 57.447,327.596 57.293,327.917 57.167 C 328.237 57.041,328.500 56.889,328.500 56.829 C 328.500 56.769,328.912 56.621,329.417 56.500 C 329.921 56.379,330.333 56.227,330.333 56.163 C 330.333 56.023,332.027 55.667,332.694 55.667 C 332.954 55.667,333.167 55.592,333.167 55.500 C 333.167 55.399,333.889 55.333,335.000 55.333 C 336.008 55.333,336.833 55.396,336.833 55.473 M283.655 61.978 C 283.707 62.060,284.181 62.222,284.708 62.340 C 285.235 62.457,285.667 62.601,285.667 62.660 C 285.667 62.718,285.937 62.864,286.266 62.983 C 287.332 63.369,290.833 66.267,290.833 66.764 C 290.833 66.821,291.021 67.091,291.250 67.364 C 291.479 67.636,291.667 67.966,291.667 68.096 C 291.667 68.227,291.742 68.333,291.833 68.333 C 291.925 68.333,292.000 68.406,292.000 68.495 C 292.000 68.584,292.181 69.053,292.402 69.537 C 292.623 70.021,292.859 70.717,292.926 71.083 C 292.993 71.450,293.131 71.804,293.232 71.869 C 293.472 72.023,293.461 76.649,293.221 76.806 C 293.128 76.867,293.002 77.179,292.940 77.500 C 292.797 78.243,292.148 79.849,291.875 80.137 C 291.761 80.258,291.667 80.455,291.667 80.575 C 291.667 80.695,291.552 80.887,291.413 81.003 C 291.273 81.119,291.192 81.247,291.232 81.288 C 291.340 81.396,289.020 83.877,288.305 84.418 C 287.290 85.186,285.565 86.090,284.797 86.257 C 284.496 86.322,284.196 86.460,284.131 86.563 C 283.969 86.818,278.203 86.824,278.036 86.569 C 277.970 86.469,277.560 86.284,277.125 86.158 C 276.690 86.031,276.333 85.883,276.333 85.828 C 276.333 85.774,276.071 85.626,275.750 85.500 C 275.429 85.374,275.167 85.210,275.167 85.136 C 275.167 85.061,275.087 85.000,274.990 85.000 C 274.554 85.000,271.927 82.558,271.745 81.983 C 271.689 81.809,271.583 81.667,271.509 81.667 C 271.435 81.667,271.281 81.442,271.167 81.167 C 271.053 80.892,270.900 80.667,270.826 80.667 C 270.753 80.667,270.644 80.441,270.583 80.165 C 270.522 79.889,270.371 79.562,270.248 79.438 C 270.124 79.314,269.926 78.734,269.809 78.148 C 269.691 77.563,269.517 77.030,269.422 76.964 C 269.183 76.799,269.190 71.861,269.430 71.702 C 269.529 71.637,269.708 71.115,269.828 70.542 C 269.948 69.969,270.110 69.500,270.189 69.500 C 270.269 69.500,270.333 69.412,270.333 69.305 C 270.333 68.983,271.349 67.000,271.514 67.000 C 271.598 67.000,271.667 66.906,271.667 66.791 C 271.667 66.676,271.892 66.370,272.167 66.110 C 272.442 65.851,272.667 65.537,272.667 65.414 C 272.667 65.290,272.798 65.145,272.958 65.091 C 273.119 65.037,273.575 64.695,273.973 64.330 C 274.370 63.965,274.758 63.667,274.836 63.667 C 274.913 63.667,275.075 63.570,275.196 63.453 C 275.549 63.110,277.194 62.368,277.875 62.244 C 278.219 62.181,278.500 62.067,278.500 61.991 C 278.500 61.671,283.452 61.658,283.655 61.978 M161.801 67.469 C 161.148 67.865,161.171 67.345,161.169 81.346 L 161.167 94.275 161.552 94.638 C 161.765 94.837,162.065 95.000,162.219 95.000 C 162.374 95.000,162.500 95.075,162.500 95.167 C 162.500 95.272,163.778 95.333,166.000 95.333 C 167.925 95.333,169.500 95.268,169.500 95.188 C 169.500 95.107,169.725 94.997,170.000 94.942 C 170.275 94.887,170.500 94.759,170.500 94.659 C 170.500 94.558,170.614 94.362,170.753 94.223 C 170.976 94.001,171.001 92.416,170.961 81.013 L 170.917 68.056 170.417 67.616 L 169.917 67.177 166.083 67.187 C 162.846 67.196,162.180 67.239,161.801 67.469 M53.667 70.632 C 53.667 70.705,53.217 70.864,52.667 70.986 C 52.117 71.108,51.667 71.266,51.667 71.336 C 51.667 71.406,51.498 71.506,51.292 71.558 C 50.183 71.838,47.738 74.410,47.070 76.000 C 46.935 76.321,46.739 76.733,46.633 76.917 C 46.159 77.743,46.338 83.667,46.838 83.667 C 46.906 83.667,47.012 83.927,47.071 84.245 C 47.131 84.564,47.271 84.883,47.382 84.954 C 47.493 85.025,47.696 85.302,47.834 85.569 C 48.145 86.175,49.840 87.861,50.457 88.179 C 50.710 88.309,50.954 88.458,51.000 88.509 C 51.046 88.560,51.346 88.706,51.667 88.833 C 51.987 88.960,52.289 89.121,52.337 89.189 C 52.753 89.785,58.738 89.772,59.167 89.175 C 59.212 89.111,59.606 88.961,60.042 88.841 C 60.477 88.721,60.833 88.556,60.833 88.474 C 60.833 88.392,61.021 88.254,61.250 88.167 C 61.479 88.080,61.667 87.931,61.667 87.837 C 61.667 87.744,61.760 87.666,61.875 87.666 C 62.147 87.665,63.445 86.303,63.694 85.758 C 63.800 85.524,63.937 85.333,63.997 85.333 C 64.150 85.333,64.784 84.026,64.928 83.417 C 64.993 83.142,65.129 82.811,65.231 82.683 C 65.471 82.380,65.486 77.703,65.247 77.536 C 65.154 77.470,64.984 77.053,64.869 76.610 C 64.754 76.166,64.549 75.692,64.413 75.556 C 64.278 75.420,64.167 75.202,64.167 75.071 C 64.167 74.940,64.097 74.833,64.011 74.833 C 63.926 74.833,63.814 74.702,63.763 74.542 C 63.632 74.130,61.902 72.377,61.500 72.250 C 61.317 72.192,61.167 72.080,61.167 72.002 C 61.167 71.923,60.887 71.767,60.546 71.654 C 60.205 71.542,59.827 71.351,59.706 71.230 C 59.585 71.109,59.114 70.960,58.660 70.900 C 58.205 70.840,57.833 70.725,57.833 70.645 C 57.833 70.565,56.896 70.500,55.750 70.500 C 54.604 70.500,53.667 70.560,53.667 70.632 M86.333 81.612 C 86.104 81.660,85.879 81.753,85.833 81.817 C 85.787 81.881,85.448 82.021,85.079 82.129 C 84.369 82.336,82.500 84.007,82.500 84.435 C 82.500 84.562,82.429 84.667,82.341 84.667 C 82.151 84.667,81.836 85.731,81.834 86.375 C 81.834 86.627,81.758 86.833,81.667 86.833 C 81.465 86.833,81.442 88.368,81.640 88.592 C 81.717 88.679,81.873 89.181,81.986 89.708 C 82.098 90.235,82.248 90.667,82.319 90.667 C 82.389 90.667,82.530 90.849,82.631 91.072 C 82.892 91.644,83.520 92.333,83.780 92.333 C 83.901 92.333,84.000 92.404,84.000 92.491 C 84.000 92.645,84.500 92.962,85.331 93.336 C 86.360 93.798,90.500 93.653,90.500 93.155 C 90.500 93.082,90.652 92.974,90.839 92.915 C 91.268 92.779,92.667 91.467,92.667 91.200 C 92.667 91.090,92.738 91.000,92.826 91.000 C 93.530 91.000,94.155 86.928,93.616 85.849 C 93.476 85.567,93.312 85.117,93.253 84.849 C 93.195 84.581,93.038 84.320,92.906 84.269 C 92.775 84.219,92.667 84.090,92.667 83.983 C 92.667 83.817,92.103 83.236,91.289 82.565 C 91.165 82.464,90.792 82.291,90.460 82.181 C 90.127 82.071,89.831 81.911,89.802 81.825 C 89.743 81.648,86.968 81.477,86.333 81.612 " stroke="none" fill="#8c2c04" fill-rule="evenodd"></path><path id="path2" d="" stroke="none" fill="#c84818" fill-rule="evenodd"></path><path id="path3" d="M63.217 15.833 C 63.217 16.337,63.248 16.544,63.286 16.292 C 63.324 16.040,63.324 15.627,63.286 15.375 C 63.248 15.123,63.217 15.329,63.217 15.833 " stroke="none" fill="#8c4c18" fill-rule="evenodd"></path></g></svg>