<svg xmlns="http://www.w3.org/2000/svg" viewBox="0 0 767 761"><filter id="b"><feGaussianBlur stdDeviation="12" /></filter><path fill="#868280" d="M0 0h767v758H0z"/><g filter="url(#b)" transform="translate(1.5 1.5) scale(2.9961)" fill-opacity=".5"><ellipse fill="#fff" rx="1" ry="1" transform="matrix(6.63396 39.41223 -251.46261 42.32675 80.2 16.2)"/><ellipse fill="#16221d" cx="213" cy="192" rx="66" ry="124"/><ellipse cx="116" cy="61" rx="51" ry="29"/><ellipse rx="1" ry="1" transform="rotate(-17.4 816.7 -83) scale(64.57373 30.52517)"/><ellipse fill="#f0fcff" rx="1" ry="1" transform="rotate(-89.1 57.7 31.9) scale(127.62149 39.32677)"/><ellipse fill="#fff" rx="1" ry="1" transform="matrix(11.40948 -18.41855 64.7173 40.08954 173.8 26.9)"/><ellipse fill="#a6b1b8" rx="1" ry="1" transform="matrix(-.89004 43.06087 -19.38525 -.40068 221.7 184.3)"/><ellipse fill="#192015" rx="1" ry="1" transform="matrix(39.11854 38.99796 -20.40156 20.46464 187.8 99.8)"/></g></svg>