<svg xmlns="http://www.w3.org/2000/svg" viewBox="0 0 2444 1872"><filter id="b"><feGaussianBlur stdDeviation="12" /></filter><path fill="#2c3230" d="M0 0h2444v1871H0z"/><g filter="url(#b)" transform="translate(4.8 4.8) scale(9.54688)" fill-opacity=".5"><ellipse fill="#f6fffd" rx="1" ry="1" transform="matrix(-.52644 -30.01337 115.68626 -2.02914 127 53.3)"/><ellipse rx="1" ry="1" transform="matrix(184.99293 -22.31116 10.6431 88.24726 107.8 164.2)"/><ellipse fill="#3ea2ba" cx="47" cy="55" rx="42" ry="35"/><path fill="#fff7d8" d="M242.6 37.4l-4.3 30.7-111-15.5 4.4-30.7z"/><ellipse fill="#88614e" rx="1" ry="1" transform="matrix(-63.00842 -11.90557 3.14677 -16.65383 176.2 77.3)"/><path d="M127.7-16l.7 147.2L116.3 18-16 17.8z"/><path d="M256.7 30.6L81.3 15.2l4-45.8 175.4 15.4z"/><ellipse fill="#ddc6d4" rx="1" ry="1" transform="matrix(-19.42535 22.48772 -12.66035 -10.93627 97 44.3)"/></g></svg>